<svg xmlns="http://www.w3.org/2000/svg" viewBox="0 0 32 32" shape-rendering="crispEdges"><!-- scripts/make-icons.mjs: pixel 光 --><rect width="32" height="32" fill="#D8B24A"/><rect x="1" y="1" width="30" height="30" fill="#0A0F0B"/><g fill="#F0CE6A"><rect x="15" y="3" width="2" height="2"/><rect x="5" y="5" width="2" height="2"/><rect x="15" y="5" width="2" height="2"/><rect x="25" y="5" width="2" height="2"/><rect x="7" y="7" width="2" height="2"/><rect x="15" y="7" width="2" height="2"/><rect x="23" y="7" width="2" height="2"/><rect x="9" y="9" width="2" height="2"/><rect x="15" y="9" width="2" height="2"/><rect x="21" y="9" width="2" height="2"/><rect x="15" y="11" width="2" height="2"/><rect x="3" y="13" width="2" height="2"/><rect x="5" y="13" width="2" height="2"/><rect x="7" y="13" width="2" height="2"/><rect x="9" y="13" width="2" height="2"/><rect x="11" y="13" width="2" height="2"/><rect x="13" y="13" width="2" height="2"/><rect x="15" y="13" width="2" height="2"/><rect x="17" y="13" width="2" height="2"/><rect x="19" y="13" width="2" height="2"/><rect x="21" y="13" width="2" height="2"/><rect x="23" y="13" width="2" height="2"/><rect x="25" y="13" width="2" height="2"/><rect x="27" y="13" width="2" height="2"/><rect x="11" y="15" width="2" height="2"/><rect x="19" y="15" width="2" height="2"/><rect x="11" y="17" width="2" height="2"/><rect x="19" y="17" width="2" height="2"/><rect x="11" y="19" width="2" height="2"/><rect x="19" y="19" width="2" height="2"/><rect x="9" y="21" width="2" height="2"/><rect x="19" y="21" width="2" height="2"/><rect x="7" y="23" width="2" height="2"/><rect x="19" y="23" width="2" height="2"/><rect x="27" y="23" width="2" height="2"/><rect x="5" y="25" width="2" height="2"/><rect x="19" y="25" width="2" height="2"/><rect x="27" y="25" width="2" height="2"/><rect x="3" y="27" width="2" height="2"/><rect x="21" y="27" width="2" height="2"/><rect x="23" y="27" width="2" height="2"/><rect x="25" y="27" width="2" height="2"/><rect x="27" y="27" width="2" height="2"/></g></svg>
